# xmcd
# 
# Track frame offsets:
#     150
#     19385
#     34764
#     52460
#     71858
#     85543
#     97583
#     116908
#     131600
#     147145
#     166061
#     184391
#     200722
#     215013
# 
# Disc length: 3735
# 
# Revision: 3
# Processed by: cddbd v1.5.2PL0 Copyright (c) Steve Scherf et al.
# Submitted via: BonkEnc v1.0.6
# 
DISCID=d30e950e
DTITLE=Falamansa - Segue A vida 
DYEAR=2007
DGENRE=Latin-Br-Forro
TTITLE0=Segue A vida
TTITLE1=Amor É Amor
TTITLE2=Miou
TTITLE3=Abençoe Este Planeta
TTITLE4=O Som
TTITLE5=Quebra Cabeças
TTITLE6=Juras De Amor
TTITLE7=Pra Valer
TTITLE8=O Sol De Hiroshima
TTITLE9=Segredos De Uma Lua Cheia
TTITLE10=Teu Lugar
TTITLE11=Na Medida
TTITLE12=Pensamento Do Dia
TTITLE13=Nunca É Tarde
EXTD=
EXTT0=
EXTT1=
EXTT2=
EXTT3=
EXTT4=
EXTT5=
EXTT6=
EXTT7=
EXTT8=
EXTT9=
EXTT10=
EXTT11=
EXTT12=
EXTT13=
PLAYORDER=
